<svg preserveAspectRatio="xMidYMid meet" width="12" height="12" viewBox="0 0 12 12" fill="none" xmlns="http://www.w3.org/2000/svg">
<g id="Vector">
<path d="M4 5C4.55228 5 5 4.55228 5 4V0.5C5 0.223857 4.77614 0 4.5 0C4.22386 0 4 0.223857 4 0.5V4H0.5C0.223857 4 0 4.22386 0 4.5C0 4.77614 0.223857 5 0.5 5H4Z" fill="#f7f7f8"/>
<path d="M4 7C4.55228 7 5 7.44772 5 8V11.5C5 11.7761 4.77614 12 4.5 12C4.22386 12 4 11.7761 4 11.5V8H0.5C0.223857 8 0 7.77614 0 7.5C0 7.22386 0.223857 7 0.5 7H4Z" fill="#f7f7f8"/>
<path d="M7 4C7 4.55228 7.44772 5 8 5H11.5C11.7761 5 12 4.77614 12 4.5C12 4.22386 11.7761 4 11.5 4H8V0.5C8 0.223857 7.77614 0 7.5 0C7.22386 0 7 0.223857 7 0.5V4Z" fill="#f7f7f8"/>
<path d="M8 7C7.44772 7 7 7.44772 7 8V11.5C7 11.7761 7.22386 12 7.5 12C7.77614 12 8 11.7761 8 11.5V8H11.5C11.7761 8 12 7.77614 12 7.5C12 7.22386 11.7761 7 11.5 7H8Z" fill="#f7f7f8"/>
</g>
</svg>
