<svg preserveAspectRatio="xMidYMid meet" width="16" height="16" viewBox="0 0 14 12" fill="none" xmlns="http://www.w3.org/2000/svg">
<g id="Vector">
<path d="M7 9C8.65685 9 10 7.65685 10 6C10 4.34315 8.65685 3 7 3C5.34315 3 4 4.34315 4 6C4 7.65685 5.34315 9 7 9ZM7 8C5.89543 8 5 7.10457 5 6C5 5.79502 5.03084 5.59725 5.08812 5.41106C5.24491 5.75832 5.59423 6 6 6C6.55228 6 7 5.55228 7 5C7 4.59423 6.75832 4.24491 6.41106 4.08812C6.59725 4.03084 6.79502 4 7 4C8.10457 4 9 4.89543 9 6C9 7.10457 8.10457 8 7 8Z" fill="#f7f7f8"/>
<path d="M0 6C0 6 1 12 7 12C13 12 14 6 14 6C14 6 13 0 7 0C1 0 0 6 0 6ZM1.02133 6L1.02749 5.97381C1.06067 5.83449 1.11537 5.62867 1.19868 5.37873C1.36637 4.87567 1.64404 4.21171 2.08205 3.5547C2.93957 2.26841 4.40506 1 7 1C9.59494 1 11.0604 2.26841 11.9179 3.5547C12.356 4.21171 12.6336 4.87567 12.8013 5.37873C12.8846 5.62867 12.9393 5.83449 12.9725 5.97381L12.9787 6L12.9725 6.02619C12.9393 6.16551 12.8846 6.37133 12.8013 6.62127C12.6336 7.12433 12.356 7.78829 11.9179 8.4453C11.0604 9.73159 9.59494 11 7 11C4.40506 11 2.93957 9.73159 2.08205 8.4453C1.64404 7.78829 1.36637 7.12433 1.19868 6.62127C1.11537 6.37133 1.06067 6.16551 1.02749 6.02619L1.02133 6Z" fill="#f7f7f8"/>
</g>
</svg>
