<svg preserveAspectRatio="xMidYMid meet" width="16" height="16" viewBox="0 0 26 26" fill="none" xmlns="http://www.w3.org/2000/svg">
<g id="Vector">
<path d="M2 0C0.895431 0 0 0.89543 0 2V10C0 10.5523 0.447715 11 1 11C1.55228 11 2 10.5523 2 10V2H10C10.5523 2 11 1.55228 11 1C11 0.447715 10.5523 0 10 0H2Z" fill="#f7f7f8"/>
<path d="M2 26C0.895431 26 0 25.1046 0 24V16C0 15.4477 0.447715 15 1 15C1.55228 15 2 15.4477 2 16V24H10C10.5523 24 11 24.4477 11 25C11 25.5523 10.5523 26 10 26H2Z" fill="#f7f7f8"/>
<path d="M26 2C26 0.89543 25.1046 0 24 0H16C15.4477 0 15 0.447715 15 1C15 1.55228 15.4477 2 16 2H24V10C24 10.5523 24.4477 11 25 11C25.5523 11 26 10.5523 26 10V2Z" fill="#f7f7f8"/>
<path d="M24 26C25.1046 26 26 25.1046 26 24V16C26 15.4477 25.5523 15 25 15C24.4477 15 24 15.4477 24 16V24H16C15.4477 24 15 24.4477 15 25C15 25.5523 15.4477 26 16 26H24Z" fill="#f7f7f8"/>
</g>
</svg>
