<svg preserveAspectRatio="xMidYMid meet" width="16" height="16" viewBox="0 0 28 26" fill="none" xmlns="http://www.w3.org/2000/svg">
<g id="Vector">
<path d="M1.29289 1.70711C0.902369 1.31658 0.902369 0.683418 1.29289 0.292893C1.68342 -0.0976311 2.31658 -0.0976311 2.70711 0.292893L26.7071 24.2929C27.0976 24.6834 27.0976 25.3166 26.7071 25.7071C26.3166 26.0976 25.6834 26.0976 25.2929 25.7071L1.29289 1.70711Z" fill="#f7f7f8"/>
<path d="M0 13C0 13 0.585238 9.48857 3.02204 6.26468L4.45189 7.69453C4.35233 7.83246 4.25645 7.97088 4.1641 8.1094C3.28808 9.42342 2.73274 10.7513 2.39737 11.7575C2.23074 12.2573 2.12133 12.669 2.05499 12.9476L2.04265 13L2.05499 13.0524C2.12133 13.331 2.23074 13.7427 2.39737 14.2425C2.73274 15.2487 3.28808 16.5766 4.1641 17.8906C5.87915 20.4632 8.81013 23 14 23C15.9057 23 17.5068 22.6579 18.855 22.0977L20.3654 23.608C18.643 24.4595 16.5467 25 14 25C2 25 0 13 0 13Z" fill="#f7f7f8"/>
<path d="M7.63464 2.392L9.14496 3.90232C10.4932 3.34205 12.0943 3 14 3C19.1899 3 22.1209 5.53683 23.8359 8.1094C24.7119 9.42342 25.2673 10.7513 25.6026 11.7575C25.7693 12.2573 25.8787 12.669 25.945 12.9476L25.9573 13L25.945 13.0524C25.8787 13.331 25.7693 13.7427 25.6026 14.2425C25.2673 15.2487 24.7119 16.5766 23.8359 17.8906C23.7435 18.0291 23.6477 18.1675 23.5481 18.3055L24.978 19.7353C27.4148 16.5114 28 13 28 13C28 13 26 1 14 1C11.4533 1 9.35702 1.54047 7.63464 2.392Z" fill="#f7f7f8"/>
<path d="M8 13C8 12.4625 8.07067 11.9416 8.20323 11.4459L10.0077 13.2503C10.1318 15.2601 11.7399 16.8682 13.7497 16.9923L15.5541 18.7968C15.0584 18.9293 14.5375 19 14 19C10.6863 19 8 16.3137 8 13Z" fill="#f7f7f8"/>
<path d="M12.4459 7.20323L14.2503 9.00771C16.2601 9.13181 17.8682 10.7399 17.9923 12.7497L19.7968 14.5541C19.9293 14.0584 20 13.5375 20 13C20 9.68629 17.3137 7 14 7C13.4625 7 12.9416 7.07067 12.4459 7.20323Z" fill="#f7f7f8"/>
</g>
</svg>
