<svg preserveAspectRatio="xMidYMid meet" width="16" height="16" viewBox="0 0 26.1014 26.1016" fill="none" xmlns="http://www.w3.org/2000/svg">
<path id="Vector" d="M15.8574 2.35665C19.8967 -0.0360091 23.4319 -0.741847 25.0654 0.867392C27.6818 3.44762 24.4247 10.9948 17.79 17.7229L17.165 18.344C16.3657 19.1231 15.5546 19.851 14.7451 20.5266C16.3006 21.6177 17.7982 22.4708 19.1533 23.0559C20.5441 23.6563 21.6857 23.9326 22.5263 23.9621C23.3634 23.9914 23.6888 23.7775 23.8085 23.6565C23.928 23.535 24.1376 23.2061 24.0966 22.3693C24.0553 21.5293 23.7631 20.3911 23.1435 19.009C22.8435 18.3401 22.4767 17.6367 22.0478 16.9094C21.8257 16.5326 21.8564 16.0548 22.1367 15.719C22.5709 15.199 23.3853 15.2461 23.7314 15.8283C26.1354 19.8779 26.8463 23.4243 25.2333 25.0608C22.653 27.677 15.1068 24.4191 8.37885 17.7844L7.75678 17.1594C7.17292 16.5604 6.61763 15.9553 6.09174 15.3488L5.57514 14.7414C4.48269 16.2983 3.62847 17.7973 3.04291 19.1535C2.44244 20.5445 2.16615 21.6869 2.13666 22.5275C2.10748 23.3633 2.32018 23.6887 2.44135 23.8088C2.56235 23.9281 2.89173 24.1378 3.72944 24.0969C4.56953 24.0556 5.70764 23.7644 7.08979 23.1447C7.75564 22.8462 8.45512 22.4807 9.17866 22.0539C9.55489 21.8321 10.0317 21.863 10.3671 22.1428C10.8872 22.5767 10.8402 23.3909 10.2578 23.7365C6.21249 26.1358 2.67181 26.8457 1.03705 25.2336L0.919867 25.1086C-1.47509 22.417 1.78438 15.0018 8.31537 8.37911C9.31732 7.36314 10.3385 6.42295 11.3603 5.56954C9.80306 4.47696 8.30355 3.62287 6.94721 3.03731C5.72996 2.51184 4.70311 2.23528 3.90229 2.1545L3.57319 2.13106C2.73679 2.10193 2.41172 2.31565 2.29194 2.43673C2.17261 2.55783 1.96401 2.88598 2.00483 3.72286C2.04595 4.56289 2.33731 5.70089 2.95698 7.08321C3.2893 7.82441 3.70423 8.60798 4.19526 9.41915C4.47413 9.88004 4.36012 10.4818 3.91987 10.7922C3.45742 11.1181 2.81531 10.9973 2.52143 10.5139C-0.00304725 6.36031 -0.778574 2.70225 0.868109 1.03243L0.992132 0.915243C3.68336 -1.48042 11.1005 1.77748 17.7236 8.3088C18.7396 9.31079 19.6779 10.3338 20.5312 11.3557C21.6224 9.80008 22.4764 8.3026 23.0615 6.94747C23.6617 5.55682 23.9373 4.41493 23.9667 3.57442C23.9959 2.73667 23.7821 2.41154 23.6611 2.2922C23.5396 2.17278 23.2121 1.96423 22.3759 2.00509C21.5358 2.04621 20.3981 2.33841 19.0156 2.95821C18.3531 3.25522 17.6563 3.61671 16.9365 4.04024C16.5597 4.26195 16.0827 4.23145 15.747 3.95138C15.2268 3.51684 15.2742 2.70232 15.8574 2.35665ZM13.0087 6.80196C11.9208 7.68832 10.8208 8.68565 9.73823 9.78341C8.65661 10.8802 7.67703 11.9938 6.80659 13.093C7.69142 14.18 8.6867 15.2793 9.78315 16.3606C10.8815 17.4437 11.997 18.4238 13.0976 19.2951C14.1843 18.4097 15.2838 17.4151 16.3652 16.3186C17.4478 15.2208 18.4278 14.1052 19.2988 13.0051C18.4126 11.917 17.4162 10.8164 16.3183 9.7336C15.2215 8.65198 14.108 7.6724 13.0087 6.80196Z" fill="#f7f7f8"/>
</svg>
