<svg preserveAspectRatio="xMidYMid meet" width="24" height="24" overflow="visible" style="display: block;" viewBox="0 0 20.7265 18.9536" fill="none" xmlns="http://www.w3.org/2000/svg">
<g id="Union">
<path d="M9.32153 0.7988C10.3866 -0.266267 12.1134 -0.266267 13.1785 0.7988L19.9277 7.54807C20.9927 8.61314 20.9928 10.34 19.9277 11.405L13.1785 18.155C12.1135 19.2199 10.3866 19.2198 9.32153 18.155L6.7478 15.5813C6.48163 15.3151 6.48178 14.8837 6.7478 14.6174C7.01404 14.351 7.44607 14.3503 7.7124 14.6167L10.2854 17.1904C10.8179 17.7228 11.6813 17.7228 12.2139 17.1904L18.9639 10.4411C19.4963 9.90866 19.4962 9.04522 18.9639 8.51267L12.2139 1.76267C11.6813 1.23036 10.8179 1.23021 10.2854 1.76267L7.8208 4.22653C7.55461 4.49266 7.12319 4.49259 6.85693 4.22653C6.59049 3.96027 6.59051 3.52823 6.85693 3.26193L9.32153 0.7988Z" fill="var(--fill-0, #B682F7)"/>
<path d="M11.25 7.1196C12.4925 7.1196 13.4998 8.12711 13.5 9.3696C13.5 10.6122 12.4926 11.6196 11.25 11.6196C10.2706 11.6196 9.43946 10.9931 9.13037 10.1196H0.75C0.335786 10.1196 0 9.78381 0 9.3696C0.000173509 8.95553 0.335894 8.6196 0.75 8.6196H9.13037C9.43954 7.74624 10.2707 7.1196 11.25 7.1196Z" fill="var(--fill-0, #B682F7)"/>
</g>
</svg>
