<svg preserveAspectRatio="xMidYMid meet" width="100%" height="100%" overflow="visible" style="display: block;" viewBox="0 0 18 22" fill="none" xmlns="http://www.w3.org/2000/svg">
<path id="Vector" d="M0.75 0C0.335786 0 0 0.32591 0 0.727941V21.2721C0 21.6741 0.335786 22 0.75 22H5.25C5.66421 22 6 21.6741 6 21.2721V0.727941C6 0.32591 5.66421 0 5.25 0H0.75ZM12.75 0C12.3358 0 12 0.32591 12 0.727941V21.2721C12 21.6741 12.3358 22 12.75 22H17.25C17.6642 22 18 21.6741 18 21.2721V0.727941C18 0.32591 17.6642 0 17.25 0H12.75Z" fill="var(--fill-0, #F7F7F8)"/>
</svg>
