<svg preserveAspectRatio="none" width="100%" height="100%" overflow="visible" style="display: block;" viewBox="0 0 30 26.1859" fill="none" xmlns="http://www.w3.org/2000/svg">
<g id="Vector">
<path d="M19.5111 2.28276C16.4674 -0.760919 11.5326 -0.760922 8.48893 2.28276C7.90984 2.86184 8.06827 3.83807 8.80075 4.20431L12.2546 5.93126L12.7832 6.98845L0.292893 19.4788C-0.0976311 19.8693 -0.0976311 20.5025 0.292893 20.893L3.29289 23.893C3.68342 24.2835 4.31658 24.2835 4.70711 23.893L17.1975 11.4027L18.1153 11.8616L18.46 13.5851C18.5375 13.9723 18.7278 14.3279 19.007 14.6071L21.2929 16.893C21.6834 17.2835 22.3166 17.2835 22.7071 16.893L27.7071 11.893C27.8946 11.7055 28 11.4511 28 11.1859C28 10.9207 27.8946 10.6663 27.7071 10.4788L25.4212 8.19289C25.142 7.91369 24.7864 7.72338 24.3992 7.64594L22.7652 7.31913L21.9703 4.93443C21.907 4.74457 21.8004 4.57204 21.6588 4.43053L19.5111 2.28276ZM13.1491 4.1424L10.7954 2.96557C13.0458 1.46848 16.1122 1.71229 18.0969 3.69698L20.126 5.72608L20.8678 7.95159C21.0948 8.63247 21.6692 9.13954 22.3729 9.28029L24.007 9.6071L25.5858 11.1859L22 14.7717L20.4212 13.1929L20.0765 11.4694C19.9555 10.8642 19.5618 10.3488 19.0098 10.0727L17.5924 9.36405L14.8219 6.59354L14.0435 5.03683C13.85 4.64978 13.5361 4.33593 13.1491 4.1424ZM15.5858 10.1859L4 21.7717L2.41421 20.1859L14 8.60011L15.5858 10.1859Z" fill="#F7F7F8"/>
<path d="M22.7071 18.4788C23.0976 18.8693 23.0976 19.5025 22.7071 19.893L20.4142 22.1859L22.7071 24.4788C23.0976 24.8693 23.0976 25.5025 22.7071 25.893C22.3166 26.2835 21.6834 26.2835 21.2929 25.893L18.2929 22.893C17.9024 22.5025 17.9024 21.8693 18.2929 21.4788L21.2929 18.4788C21.6834 18.0883 22.3166 18.0883 22.7071 18.4788Z" fill="#F7F7F8"/>
<path d="M25.2929 19.893C24.9024 19.5025 24.9024 18.8693 25.2929 18.4788C25.6834 18.0883 26.3166 18.0883 26.7071 18.4788L29.7071 21.4788C30.0976 21.8693 30.0976 22.5025 29.7071 22.893L26.7071 25.893C26.3166 26.2835 25.6834 26.2835 25.2929 25.893C24.9024 25.5025 24.9024 24.8693 25.2929 24.4788L27.5858 22.1859L25.2929 19.893Z" fill="#F7F7F8"/>
</g>
</svg>
