<svg preserveAspectRatio="none" width="100%" height="100%" overflow="visible" style="display: block;" viewBox="0 0 14 14" fill="none" xmlns="http://www.w3.org/2000/svg">
<path id="Subtract" fill-rule="evenodd" clip-rule="evenodd" d="M14 7C14 10.866 10.866 14 7 14C3.13401 14 0 10.866 0 7C0 3.13401 3.13401 0 7 0C10.866 0 14 3.13401 14 7ZM8.96967 4.96967C9.26256 4.67678 9.73744 4.67678 10.0303 4.96967C10.3232 5.26256 10.3232 5.73744 10.0303 6.03033L6.53033 9.53033C6.23744 9.82322 5.76256 9.82322 5.46967 9.53033L3.96967 8.03033C3.67678 7.73744 3.67678 7.26256 3.96967 6.96967C4.26256 6.67678 4.73744 6.67678 5.03033 6.96967L6 7.93934L8.96967 4.96967Z" fill="white"/>
</svg>
