<svg preserveAspectRatio="none" width="100%" height="100%" overflow="visible" style="display: block;" viewBox="0 0 28.0206 15.0105" fill="none" xmlns="http://www.w3.org/2000/svg">
<g id="Vector">
<path d="M14.6688 0.757624C14.8027 0.222048 15.3451 -0.103433 15.8807 0.0300846C16.4103 0.168415 16.7411 0.709759 16.6082 1.242L13.3553 14.2557C13.2193 14.7839 12.6726 15.1098 12.1424 14.9832C11.6092 14.8495 11.2853 14.3037 11.4149 13.7703L14.6688 0.757624Z" fill="#F7F7F8"/>
<path d="M6.79962 0.29278C7.19016 -0.0974372 7.82326 -0.0976419 8.21368 0.29278C8.59498 0.683963 8.60082 1.31938 8.21368 1.70684L2.41387 7.50567L8.21368 13.3055C8.59503 13.6966 8.60076 14.332 8.21368 14.7195C7.8262 15.107 7.19088 15.101 6.79962 14.7195L0.29278 8.21368C-0.0976688 7.82323 -0.0975177 7.19016 0.29278 6.79962L6.79962 0.29278Z" fill="#F7F7F8"/>
<path d="M19.8113 0.29278C20.2018 -0.0976686 20.8349 -0.0975181 21.2254 0.29278L27.7322 6.79962C28.1138 7.19088 28.1197 7.82618 27.7322 8.21368L21.2254 14.7195C20.8378 15.1069 20.2025 15.1012 19.8113 14.7195C19.4212 14.3291 19.4212 13.6959 19.8113 13.3055L25.6111 7.50567L19.8113 1.70684C19.4211 1.31641 19.4212 0.683255 19.8113 0.29278Z" fill="#F7F7F8"/>
</g>
</svg>
