<svg preserveAspectRatio="none" width="100%" height="100%" overflow="visible" style="display: block;" viewBox="0 0 21.8725 30" fill="none" xmlns="http://www.w3.org/2000/svg">
<g id="Vector">
<path d="M6.65073 1.56785C6.953 0.439766 8.11253 -0.229691 9.24062 0.0725794L15.3684 1.7145C16.4965 2.01678 17.1659 3.17631 16.8636 4.3044L15.2217 10.4321C14.9194 11.5602 13.7599 12.2297 12.6318 11.9274L6.50407 10.2855C5.37599 9.98322 4.70653 8.82369 5.0088 7.6956L6.65073 1.56785ZM8.72298 2.00443C8.66182 1.98804 8.59896 2.02434 8.58258 2.08549L6.94065 8.21324C6.92426 8.2744 6.96056 8.33726 7.02171 8.35364L13.1495 9.99557C13.2106 10.012 13.2735 9.97566 13.2899 9.91451L14.9318 3.78676C14.9482 3.7256 14.9119 3.66274 14.8507 3.64636L8.72298 2.00443Z" fill="#F7F7F8"/>
<path d="M6.66009 14C4.30796 14 2.27387 15.6394 1.77421 17.9378L0.043219 25.9004C-0.0615532 26.3824 -0.00152862 27.0411 0.512507 27.5242C1.47434 28.4282 4.12503 30 10.9362 30C17.7474 30 20.3981 28.4282 21.3599 27.5242C21.874 27.0411 21.934 26.3824 21.8292 25.9004L20.0982 17.9379C19.5986 15.6394 17.5645 14 15.2124 14H6.66009ZM3.72856 18.3627C4.02836 16.9836 5.24881 16 6.66009 16H15.2124C16.6236 16 17.8441 16.9836 18.1439 18.3627L19.8457 26.1911C19.1742 26.725 16.9415 28 10.9362 28C4.93091 28 2.69828 26.725 2.02674 26.1911L3.72856 18.3627Z" fill="#F7F7F8"/>
</g>
</svg>
