<svg preserveAspectRatio="none" width="100%" height="100%" overflow="visible" style="display: block;" viewBox="0 0 28 28" fill="none" xmlns="http://www.w3.org/2000/svg">
<path id="Vector" d="M13.9904 0C6.26281 0.00519872 0 6.27122 0 14C0 21.7284 6.26215 27.9941 13.9891 28L14.0097 28C21.7372 27.9948 28 21.7288 28 14C28 6.27122 21.7372 0.00519776 14.0096 0H13.9904ZM14 25.6069L13.9587 25.5617C13.5303 25.0905 12.9479 24.3641 12.3619 23.368C11.286 21.5389 10.1889 18.7855 10.0219 15H17.9781C17.8111 18.7855 16.714 21.5389 15.6381 23.368C15.0521 24.3641 14.4697 25.0905 14.0413 25.5617L14 25.6069ZM8.02007 13H2.04107C2.48095 7.66806 6.4067 3.32454 11.5341 2.25361C11.245 2.64847 10.9412 3.10273 10.6381 3.61798C9.403 5.71759 8.18936 8.81519 8.02007 13ZM10.0219 13C10.1889 9.21449 11.286 6.46113 12.3619 4.63202C12.9479 3.63588 13.5303 2.90952 13.9587 2.43829L14 2.39312L14.0413 2.43829C14.4697 2.90952 15.0521 3.63588 15.6381 4.63202C16.714 6.46113 17.8111 9.21449 17.9781 13H10.0219ZM8.02007 15C8.18936 19.1848 9.403 22.2824 10.6381 24.382C10.9412 24.8973 11.245 25.3515 11.5341 25.7464C6.4067 24.6755 2.48095 20.3319 2.04107 15H8.02007ZM17.3619 24.382C18.597 22.2824 19.8106 19.1848 19.9799 15H25.9589C25.519 20.3319 21.5933 24.6755 16.4659 25.7464C16.755 25.3515 17.0588 24.8973 17.3619 24.382ZM25.9589 13H19.9799C19.8106 8.81519 18.597 5.71759 17.3619 3.61798C17.0588 3.10273 16.755 2.64847 16.4659 2.25361C21.5933 3.32454 25.519 7.66806 25.9589 13Z" fill="#F7F7F8"/>
</svg>
