<svg preserveAspectRatio="none" width="100%" height="100%" overflow="visible" style="display: block;" viewBox="0 0 13.8739 13.8738" fill="none" xmlns="http://www.w3.org/2000/svg">
<g id="Progress01">
<path id="arc" d="M7.34515 1.63225C7.79589 1.63225 8.16128 1.26686 8.16128 0.816128C8.16128 0.365393 7.79589 4.42757e-07 7.34515 2.55241e-08L7.34515 0.816127L7.34515 1.63225ZM0.816127 7.34514L1.63225 7.34515C1.63225 6.59492 1.78002 5.85203 2.06712 5.15891L1.31312 4.8466L0.559117 4.53428C0.189988 5.42543 6.81321e-08 6.38057 8.52742e-09 7.34514H0.816127ZM1.31312 4.8466L2.06712 5.15891C2.35422 4.46579 2.77503 3.83601 3.30552 3.30552L2.72843 2.72843L2.15135 2.15134C1.46929 2.8334 0.928245 3.64312 0.559117 4.53428L1.31312 4.8466ZM2.72843 2.72843L3.30552 3.30552C3.83602 2.77503 4.4658 2.35422 5.15892 2.06712L4.8466 1.31312L4.53428 0.559114C3.64313 0.928242 2.83341 1.46928 2.15135 2.15134L2.72843 2.72843ZM4.8466 1.31312L5.15892 2.06712C5.85204 1.78002 6.59492 1.63225 7.34515 1.63225L7.34515 0.816127L7.34515 2.55241e-08C6.38057 -9.2815e-07 5.42544 0.189986 4.53428 0.559114L4.8466 1.31312Z" fill="#F7F7F8"/>
</g>
</svg>
