<svg preserveAspectRatio="none" width="100%" height="100%" overflow="visible" style="display: block;" viewBox="0 0 28.4893 29.1684" fill="none" xmlns="http://www.w3.org/2000/svg">
<g id="Vector">
<path d="M21.0283 18.9751C21.4188 18.5847 22.0529 18.5847 22.4434 18.9751C22.8338 19.3656 22.8338 19.9996 22.4434 20.3901L19.9072 22.9253H27.4893L27.5918 22.9302C28.0959 22.9815 28.4892 23.4077 28.4893 23.9253C28.4893 24.4776 28.0415 24.9253 27.4893 24.9253H19.9072L22.4434 27.4604C22.8338 27.8509 22.8338 28.485 22.4434 28.8755C22.0528 29.266 21.4188 29.266 21.0283 28.8755L16.7861 24.6323C16.3957 24.2418 16.3956 23.6088 16.7861 23.2183L21.0283 18.9751Z" fill="#F7F7F8"/>
<path fill-rule="evenodd" clip-rule="evenodd" d="M10.9932 0.401855C11.9213 -0.133951 13.065 -0.133952 13.9932 0.401855L23.4863 5.88232L23.6562 5.98877C24.4836 6.54305 24.9862 7.4764 24.9863 8.48096V14.9272C24.9863 15.4795 24.5386 15.9272 23.9863 15.9272C23.4341 15.9272 22.9864 15.4795 22.9863 14.9272V9.3999L13.4941 14.5659V15.1851C13.4939 15.737 13.0461 16.1848 12.4941 16.1851C11.942 16.1851 11.4944 15.7372 11.4941 15.1851V14.5483L2 9.05713V19.4429C2.00017 19.7999 2.19081 20.1305 2.5 20.3091L11.4961 25.5024C11.52 24.9714 11.9572 24.5483 12.4941 24.5483L12.5967 24.5532C13.1005 24.6048 13.494 25.0309 13.4941 25.5483V26.5845C13.4941 26.5899 13.4933 26.5956 13.4932 26.6011V27.0991C13.4932 27.49 13.2473 27.8531 12.8594 27.9009C12.2873 27.9713 11.6996 27.8761 11.1699 27.6157L10.9932 27.522L1.5 22.0405C0.62982 21.5381 0.0729927 20.636 0.00683594 19.6421L0 19.4429V8.48096C9.5891e-05 7.4093 0.571923 6.41819 1.5 5.88232L10.9932 0.401855ZM12.9932 2.1333C12.6839 1.95487 12.3024 1.95493 11.9932 2.1333L3 7.32568L12.5098 12.8257L22.29 7.50146L12.9932 2.1333Z" fill="#F7F7F8"/>
<path d="M12.4941 18.3306C13.0461 18.3308 13.494 18.7786 13.4941 19.3306V21.4028C13.4939 21.9548 13.0461 22.4026 12.4941 22.4028C11.942 22.4028 11.4944 21.9549 11.4941 21.4028V19.3306C11.4943 18.7784 11.9419 18.3306 12.4941 18.3306Z" fill="#F7F7F8"/>
</g>
</svg>
